<?xml version="1.0" encoding="UTF-8" standalone="no"?>
	<!DOCTYPE svg PUBLIC "-//W3C//DTD SVG 1.1//EN" "http://www.w3.org/Graphics/SVG/1.1/DTD/svg11.dtd">
		<svg width="77px" height="44px" viewBox="0 0 81 47" version="1.1" xmlns="http://www.w3.org/2000/svg" xmlns:xlink="http://www.w3.org/1999/xlink" xml:space="preserve" xmlns:serif="http://www.serif.com/" style="fill-rule:evenodd;clip-rule:evenodd;stroke-linejoin:round;stroke-miterlimit:2;">
			<g>
				<path d="M3.537,31.448c0.095,-11.641 17.045,-24.49 37.859,-28.701c4.96,-1.003 9.692,-1.424 14.022,-1.328c-3.205,-0.518 -6.627,-0.796 -10.216,-0.796c-21.949,0 -41.754,10.347 -44.235,23.11c-0.842,4.337 0.425,8.393 3.324,11.861c-0.505,-1.286 -0.765,-2.67 -0.754,-4.146" style="fill:#3b8bd2;"/><path d="M78.746,14.147c0.116,0.664 0.173,1.349 0.168,2.055c-0.095,11.64 -17.045,24.49 -37.859,28.701c-4.877,0.986 -9.533,1.411 -13.803,1.333c2.841,0.397 5.841,0.608 8.967,0.608c21.95,-0 41.755,-10.347 44.236,-23.111c0.664,-3.42 0.016,-6.665 -1.709,-9.586" style="fill:#3b8bd2;"/><path d="M61.045,28.082l-0.254,1.405l1.413,0l0.253,-1.405l-1.412,-0Z" style="fill:#3b8bd2;"/><path d="M60.456,31.346l1.413,0l0.253,-1.405l-1.412,-0l-0.254,1.405Z" style="fill:#3b8bd2;"/><path d="M62.794,26.223l-1.413,0l-0.253,1.405l1.412,-0l0.254,-1.405Z" style="fill:#3b8bd2;"/><path d="M62.946,28.082l-0.252,1.406l1.412,-0l0.254,-1.406l-1.414,0Z" style="fill:#3b8bd2;"/><path d="M62.358,31.347l1.413,-0l0.254,-1.405l-1.413,-0l-0.254,1.405Z" style="fill:#3b8bd2;"/><path d="M64.696,26.223l-1.413,0l-0.254,1.405l1.413,0l0.254,-1.405Z" style="fill:#3b8bd2;"/><path d="M64.579,29.488l1.414,-0l0.253,-1.406l-1.413,-0l-0.254,1.406Z" style="fill:#3b8bd2;"/><path d="M64.245,31.346l1.412,0l0.254,-1.405l-1.413,-0l-0.253,1.405Z" style="fill:#3b8bd2;"/><path d="M64.916,27.628l1.413,-0l0.253,-1.405l-1.413,-0l-0.253,1.405Z" style="fill:#3b8bd2;"/><path d="M68.308,14.214c-3.373,-0.07 -5.144,1.714 -5.65,4.724c-0.069,0.39 -0.104,0.597 -0.159,0.912c-0.11,0.625 -0.184,1.043 -0.184,1.043l-6.934,-0c-0,-0 0.074,-0.418 0.184,-1.044l0.169,-0.931c0.559,-3.375 -0.044,-4.654 -4.27,-4.702l0.001,-0.002l-14.525,-0l-0.065,0.003c-2.126,0.04 -2.936,2.801 -3.093,3.535l0.529,-3.54l-5.003,-0l-1.457,8.616l-5.467,-8.616l-4.76,-0l-2.98,17.028l5.056,-0l1.672,-9.296l5.327,9.357l4.775,0l2.265,-13.393l5.895,-0l-2.368,13.431l5.2,-0l2.368,-13.431l3.052,-0l0.262,-0.012c2.126,-0.041 3.011,-2.815 3.168,-3.549l-0.605,3.561l-0.002,-0l-2.369,13.431l5.2,-0l1.19,-6.753l6.934,0l-0.207,1.171l5.201,0l2.035,-11.543l-0.385,-0Z" style="fill:#3b8bd2;"/>
			</g>
		</svg>