<svg id="SvgjsSvg1000" xmlns="http://www.w3.org/2000/svg" version="1.1" xmlns:xlink="http://www.w3.org/1999/xlink" xmlns:svgjs="http://svgjs.com/svgjs" width="183" height="40" viewBox="0 0 183 40"><title>Logo smaller</title><desc>Created with Avocode.</desc><defs id="SvgjsDefs1001"></defs><path id="SvgjsPath1007" d="M203.7 84.17H59.95999999999998C49.52999999999998 84.17 40.99999999999998 75.58 40.99999999999998 65.09C40.99999999999998 54.59 49.52999999999998 46 59.95999999999998 46H203.7C214.11999999999998 46 222.64999999999998 54.59 222.64999999999998 65.09C222.64999999999998 75.58 214.11999999999998 84.17 203.7 84.17 " fill="#ffe300" fill-opacity="1" transform="matrix(1,0,0,1,-40,-45)"></path><path id="SvgjsPath1008" d="M59.62 83.17C49.54 83.17 41.339999999999996 74.91 41.339999999999996 64.76C41.339999999999996 54.61000000000001 49.53999999999999 46.35000000000001 59.62 46.35000000000001H203.36C213.45000000000002 46.35000000000001 221.65 54.61000000000001 221.65 64.76C221.65 74.91000000000001 213.45000000000002 83.17 203.36 83.17ZM59.62 45C48.8 45 40 53.86 40 64.76C40 75.65 48.8 84.52000000000001 59.620000000000005 84.52000000000001H203.36C214.19000000000003 84.52000000000001 222.99 75.65 222.99 64.76C222.99 53.86000000000001 214.19 45 203.36 45Z " fill="#000000" fill-opacity="1" transform="matrix(1,0,0,1,-40,-45)"></path><path id="SvgjsPath1009" d="M72.06 64.31C73.28 62.47 73.44 61.410000000000004 73.53 59.730000000000004C73.66 57.24 72.56 55.53 71.25 54.480000000000004C69.54 53.11000000000001 66.19 53.03 66.19 53.03L54 53V75.83L59.01 75.89L59.08 57.379999999999995L65.77 57.349999999999994C65.77 57.349999999999994 68.03999999999999 57.50999999999999 68.03999999999999 59.87C68.03999999999999 62.43 65.49999999999999 62.16 61.68999999999999 62.16C61.48999999999999 62.559999999999995 59.69999999999999 66.59 59.69999999999999 66.59L66.71 66.60000000000001C66.71 66.60000000000001 70.57 66.55000000000001 72.05999999999999 64.31 " fill="#000000" fill-opacity="1" transform="matrix(1,0,0,1,-40,-45)"></path><path id="SvgjsPath1010" d="M54 53H54.27Z " fill="#000000" fill-opacity="1" transform="matrix(1,0,0,1,-40,-45)"></path><path id="SvgjsPath1011" d="M77.91 53L69 75.87L74.03 75.82000000000001L80.18 59.35000000000001L82.99000000000001 66.53H79.31L77.59 71.08L84.06 71.03999999999999L86.06 75.88999999999999L91.35000000000001 75.86999999999999L82.52000000000001 52.999999999999986Z " fill="#000000" fill-opacity="1" transform="matrix(1,0,0,1,-40,-45)"></path><path id="SvgjsPath1012" d="M95.68 70.37C94.95 69.43 94.95 67.61 94.95 67.61L94.88000000000001 53H90.00000000000001L90.03000000000002 68.31C90.03000000000002 68.31 90.13000000000001 71.22 91.61000000000001 73.13C93.46000000000001 75.53999999999999 96.96000000000001 75.75999999999999 96.96000000000001 75.75999999999999L103.91000000000001 75.61999999999999V71.30999999999999H98.29C98.29 71.30999999999999 96.42 71.30999999999999 95.68 70.36999999999999 " fill="#000000" fill-opacity="1" transform="matrix(1,0,0,1,-40,-45)"></path><path id="SvgjsPath1013" d="M107.74 55.15C106 57.31 106 59.46 106 59.46L106.06 75.76H110.81L110.88 61.010000000000005C110.88 61.010000000000005 110.88 59.190000000000005 111.75 58.32000000000001C112.62 57.440000000000005 114.63 57.440000000000005 114.63 57.440000000000005H120.78V53.07000000000001L112.69 53.00000000000001C112.69 53.00000000000001 109.41 53.080000000000005 107.74 55.150000000000006 " fill="#000000" fill-opacity="1" transform="matrix(1,0,0,1,-40,-45)"></path><path id="SvgjsPath1014" d="M111 67.38L120.16 67.44V63.07L112.8 63Z " fill="#000000" fill-opacity="1" transform="matrix(1,0,0,1,-40,-45)"></path><path id="SvgjsPath1015" d="M122 75.89H127.01V53H122Z " fill="#000000" fill-opacity="1" transform="matrix(1,0,0,1,-40,-45)"></path><path id="SvgjsPath1016" d="M143.18 53.01V68.84C143.18 68.84 136.04000000000002 54.27 135.35 53.580000000000005C134.64 52.86000000000001 133.66 53.010000000000005 133.66 53.010000000000005H129.14L129 75.77000000000001H133.75L133.68 60.290000000000006C133.68 60.290000000000006 140.92000000000002 74.22 141.6 74.99000000000001C142.26 75.75000000000001 143.01999999999998 75.72000000000001 143.01999999999998 75.72000000000001L147.98999999999998 75.77000000000001L147.92 53.010000000000005Z " fill="#000000" fill-opacity="1" transform="matrix(1,0,0,1,-40,-45)"></path><path id="SvgjsPath1017" d="M157.59 66.65L164.37 66.73V71.31H160.04C160.04 71.31 157.51999999999998 71.56 156.32 69.05C155.39 67.1 155.09 65.75 155.15 63.86C155.20000000000002 62.16 156.04 59.92 157.23000000000002 58.68C158.53000000000003 57.33 161.74 57.53 161.74 57.53L169.36 57.49V53C169.36 53 160.51000000000002 53 159.66000000000003 53.02C158.22000000000003 53.040000000000006 155.49000000000004 53.13 152.95000000000002 55.830000000000005C151.21 57.67000000000001 150.02 61.230000000000004 150.00000000000003 64.10000000000001C149.97000000000003 68.04 151.18000000000004 71.55000000000001 153.60000000000002 73.65C155.87000000000003 75.62 157.14000000000001 75.85000000000001 158.73000000000002 75.88000000000001C159.53000000000003 75.9 169.39000000000001 75.89000000000001 169.39000000000001 75.89000000000001V62.250000000000014L159.41000000000003 62.27000000000002Z " fill="#000000" fill-opacity="1" transform="matrix(1,0,0,1,-40,-45)"></path><path id="SvgjsPath1018" d="M177 67.39L187.74 67.48V63L178.81 63.01Z " fill="#000000" fill-opacity="1" transform="matrix(1,0,0,1,-40,-45)"></path><path id="SvgjsPath1019" d="M173.95 55.83C172.20999999999998 57.68 171.01999999999998 61.23 171 64.1C170.97 68.03999999999999 172.32 71.64 174.72 73.75999999999999C177.05 75.82999999999998 178.59 75.85 179.73 75.88999999999999C180.26999999999998 75.89999999999999 185.14999999999998 75.88999999999999 188.13 75.88999999999999V71.32H181.04C181.04 71.32 178.60999999999999 71.61 177.32 69.05C176.35 67.13 176.15 65.57 176.15 63.87C176.15 62.16 176.95000000000002 59.93 178.17000000000002 58.709999999999994C179.50000000000003 57.35999999999999 182.74 57.53999999999999 182.74 57.53999999999999L188.13 57.489999999999995V55.419999999999995V53.00999999999999C188.13 53.00999999999999 181.4 52.97999999999999 180.35 53.029999999999994C178.9 53.089999999999996 176.48999999999998 53.13999999999999 173.95 55.82999999999999 " fill="#000000" fill-opacity="1" transform="matrix(1,0,0,1,-40,-45)"></path><path id="SvgjsPath1020" d="M189 53H189.27Z " fill="#000000" fill-opacity="1" transform="matrix(1,0,0,1,-40,-45)"></path><path id="SvgjsPath1021" d="M209.4 73.74C209.35 73.11 209.05 69.94999999999999 208.86 69.25C208.64000000000001 68.42 208.01000000000002 67.5 207.52 67C207.24 66.72 206.45000000000002 66.24 205.97 65.95C206.79 65.61 207.52 65.06 208.05 64.31C209.22 62.690000000000005 209.43 61.410000000000004 209.53 59.730000000000004C209.66 57.24 208.59 55.49 207.25 54.480000000000004C205.55 53.190000000000005 202.19 53.03 202.19 53.03L190 53V75.82L195.01 75.88999999999999L195.07999999999998 57.37999999999998L201.80999999999997 57.49999999999998C201.80999999999997 57.49999999999998 204.03999999999996 57.50999999999998 204.03999999999996 59.869999999999976C204.03999999999996 62.42999999999998 201.49999999999997 62.159999999999975 197.68999999999997 62.159999999999975C197.48999999999998 62.559999999999974 195.69999999999996 66.58999999999997 195.69999999999996 66.58999999999997L198.83999999999995 66.59999999999998H199.04999999999995C199.04999999999995 66.59999999999998 201.27999999999994 66.63999999999999 202.25999999999996 67.76999999999998C203.23999999999995 68.88999999999999 203.68999999999997 70.00999999999998 203.81999999999996 71.98999999999998C203.95999999999995 73.95999999999998 204.00999999999996 74.31999999999998 204.08999999999997 74.71999999999998C204.2 75.32999999999998 204.45 75.84999999999998 204.45 75.84999999999998L209.92999999999998 75.86999999999998C209.92999999999998 75.86999999999998 209.45999999999998 74.58999999999997 209.39999999999998 73.73999999999998 " fill="#000000" fill-opacity="1" transform="matrix(1,0,0,1,-40,-45)"></path></svg>